<?xml version="1.0" encoding="utf-8"?>
<!-- Generator: Adobe Illustrator 22.0.1, SVG Export Plug-In . SVG Version: 6.00 Build 0)  -->
<svg version="1.1" id="Capa_1" xmlns="http://www.w3.org/2000/svg" xmlns:xlink="http://www.w3.org/1999/xlink" x="0px" y="0px"
	 viewBox="0 0 183.9 17.6" style="enable-background:new 0 0 183.9 17.6;" xml:space="preserve">
<style type="text/css">
	.st0{fill:#FFFFFF;}
	.st1{fill:#1279BE;}
</style>
<g id="Capa_2_1_">
</g>
<path class="st0" d="M77.8,3.1h-4.9c-0.4,0-0.8,0.3-0.8,0.8v4.9c0,0.4,0.3,0.8,0.8,0.8h4.9c0.4,0,0.8-0.3,0.8-0.8V3.9
	C78.6,3.5,78.2,3.1,77.8,3.1z M75,7.9c0,0.2-0.2,0.4-0.4,0.4h-0.9c-0.2,0-0.4-0.2-0.4-0.4V4.6c0-0.2,0.2-0.4,0.4-0.4h1
	c0.2,0,0.4,0.2,0.4,0.4L75,7.9L75,7.9z M77.7,6.3c0,0.2-0.2,0.4-0.4,0.4h-1.1c-0.2,0-0.4-0.2-0.4-0.4V4.5c0-0.2,0.2-0.4,0.4-0.4h1.1
	c0.2,0,0.4,0.2,0.4,0.4V6.3z"/>
<path class="st0" d="M80.9,4.8c0,0-0.9,1.8-1.2,3.1c-0.2,1.2-0.2,1.6,0.7,1.5c0.7-0.1-0.2-0.4,0.8-2.9s1.4-2.6,2.2-2.5
	c0.4,0,0.7,0.3,1,0.3s0.6-0.7-0.3-1c-0.9-0.4-2.1,0.2-3.4,0.1c-1.1,0-1,0.5-1,0.5s-0.1,0.6,0.8,0.5C81.2,4.3,80.9,4.8,80.9,4.8z"/>
<path class="st0" d="M96.9,5.4c-0.8,0-0.7-0.1-0.8-0.3C96,5,95.8,4.6,95.2,4.6c-0.6,0-1.3,0.7-1.8,1.7S93,7.7,93,7.7l-1,1
	c0,0-0.3,0.3-0.4,0c-0.2-0.2,0.7-2.1,1.1-2.7c0.1-0.1,0.2-0.3,0.2-0.4l1.4-2.2c0,0,0.4-0.6-0.1-0.9s-0.8,0.4-1.3,1.1
	c-0.6,0.8-1.6,2.8-2.1,4.2c-0.4,0.8-1.3,1.2-1.4,1c-0.1-0.2-0.2-0.7,0.3-1.5c0.5-0.8,2.1-3.5,2.3-3.9c0.2-0.3,0.3-0.9-0.2-1
	c-0.5-0.1-0.7,0-1.5,1.7c-0.8,1.7-1.7,3.4-1.8,3.5c-0.1,0-1.5,1.3-2,1.3c-0.5,0-0.6-0.4-0.3-0.6c0.3-0.2,2.2-1.4,2.5-2.6
	s-0.8-1.4-1.3-1.2c-0.5,0.2-1.2,1.2-1.4,1.2c-0.1,0-0.1-0.4-0.6-0.4S84.1,6,84,6s-0.1-0.8-0.4-1c-0.3-0.1-0.7-0.1-0.7,0.2
	c0,0,0.1,0.6-0.2,1.3c-0.3,0.7-1.2,2.1-1,2.4c0.2,0.3,1,0.9,1.2,0.1C83,8.4,83.5,7.7,84,6.9c0.3-0.4,0.7-0.8,1.4-0.7
	c0.8,0.2-0.6,0.2-0.5,2c0.2,2,2.6,1.2,2.9,0.8c0.3-0.3,0.5-0.5,0.6-0.3c0.1,0.3,0.4,0.7,1.1,0.7c0.6,0,1-0.5,1.2-0.5
	s0.3,0.5,1.1,0.5c0.8,0,1-0.8,1.3-0.8c0.3,0,0.4,0.7,1.1,0.7c0.7,0,2-1.7,2.1-3.2c0,0,1-0.2,1-0.7C97.3,5.4,97.5,5.4,96.9,5.4z
	 M86.2,6.9c0.2-0.6,1.3-1.6,1.3-1.6c0.6-0.4,0.1,0.4-0.2,0.7C87.1,6.4,86,7.5,86.2,6.9z M95.4,6c-0.1,0.5-1.3,3.6-1.5,2.5
	C93.7,7,95,5.8,95,5.8C95.1,5.6,95.4,5.5,95.4,6z"/>
<path class="st0" d="M100.2,9.7c0,0-3.1,0.1-3.6-2.6c-0.7-3.5,1.9-5.1,4.5-5c0.2,0,0.5,0.1,0.7,0.2c0.3,0.2,0.7,0.5,0.3,1.1
	c-0.3,0.4-0.8-0.1-2,0.1c-1.2,0.2-2.1,0.8-2.3,2.4c-0.3,1.6,0.6,3,2.4,3"/>
<path class="st0" d="M99.8,9.7c1.1,0.1,2.4-0.6,2.4-0.6c0.2,0,0.3,0.5,1.1,0.5s1-0.8,1.3-0.8c0.3,0,0.4,0.7,1.1,0.7
	c0.7,0,2-1.7,2.1-3.2c0,0,1.5-0.1,1.5-0.6c0-0.3-0.3-0.3-0.8-0.3c-0.8,0-0.7-0.1-0.8-0.3c-0.1-0.2-0.3-0.6-0.8-0.6
	c-0.6,0-1.3,0.7-1.8,1.7s-0.5,1.4-0.5,1.4l-1,1c0,0-0.3,0.3-0.4,0c-0.2-0.2,0.7-2.1,1.1-2.7c0.1-0.1,0.2-0.3,0.2-0.4l1.4-2.2
	c0,0,0.4-0.6-0.1-0.9s-0.8,0.4-1.3,1.1c-0.6,0.8-1.6,2.8-2.1,4.2c0,0-1,1.2-2.2,1.2 M106.9,5.9c-0.1,0.5-1.3,3.6-1.5,2.5
	c-0.2-1.5,1.1-2.7,1.1-2.7C106.6,5.6,106.9,5.5,106.9,5.9z"/>
<path class="st0" d="M107.4,6.3c0,0,0.8-0.1,1.1-0.1c0.1,0-0.6,2.6-0.5,3c0.1,0.4,0.9,0.5,1,0.1s-0.1-1.8,0.2-2.2
	c0.3-0.4,1.1-0.5,1.3,0c0.2,0.5-0.4,2.6-0.1,2.7c0.3,0.1,0.7,0.2,1-0.2c0.3-0.4,0-3.2,0-3.2l0-0.4c-0.1-0.3-0.1-0.7-1-0.8
	c-0.9-0.1-1,0.4-1.1,0.5c-0.1,0.1,0.2-0.7-0.1-0.7c-0.3,0-0.3,0.1-0.5,0.4c-0.4,0.2-0.9,0.1-0.9,0.1"/>
<path class="st0" d="M115.2,7.6c-0.1,0-1.5,1.3-2,1.3c-0.5,0-0.6-0.4-0.3-0.6c0.3-0.2,2.2-1.4,2.5-2.6c0.3-1.2-0.8-1.4-1.3-1.2
	c-0.5,0.2-1.3,1.1-1.4,1.2c-1.3,1.4-1,2.7-1,2.7c0.2,2,2.6,1.2,2.9,0.8c0,0,1.1-0.7,1.2-1.1c0.2-0.4,0-0.6,0-0.6
	S115.5,7.3,115.2,7.6z M112.9,7c0.2-0.6,1.3-1.6,1.3-1.6c0.6-0.4,0.1,0.4-0.2,0.7C113.8,6.5,112.7,7.6,112.9,7z"/>
<path class="st1" d="M118.5,9"/>
</svg>
